<svg width="128" height="134" viewBox="0 0 128 134" fill="none" xmlns="http://www.w3.org/2000/svg">
						<g filter="url(#filter0_d_220_122)">
							<path
								d="M96.2 97.5L77 88.2V85.4C82.3 81.4 88.1 74.1 93 61.1C95.6 61 97.8 59.8 99.3 57.7C101.2 55.1 101.5 51.5 100.2 48.7C99.3 46.8 97.7 45.4 95.7 44.8C95.2 21.6 83.4 7.79999 64 7.79999C44.6 7.79999 32.9 21.5 32.3 44.7C32.3 44.7 32.3 44.7 32.3 44.8C30.3 45.4 28.7 46.8 27.8 48.7C26.5 51.5 26.8 55.1 28.7 57.7C30.2 59.8 32.4 60.9 35 61.1C39.9 74.1 45.7 81.4 51 85.4V88.2L31.8 97.4C27.7 99.4 25 103.6 25 108.2V126H56.7H71.2H103V108.3C103 103.7 100.3 99.5 96.2 97.5ZM96.6 50.3C97.3 51.8 97.1 53.9 96.1 55.3C95.8 55.8 95.2 56.3 94.5 56.6C95.1 54.2 95.5 51.4 95.7 49C96 49.4 96.3 49.8 96.6 50.3ZM64 11.8C81.2 11.8 91.3 23.9 91.7 45C80.1 47.6 70.2 42.5 61.5 38C54.2 34.2 47.9 30.9 42 33.1C40.2 33.8 38.6 34.9 37.1 36.6C39.7 20.7 49.2 11.8 64 11.8ZM31.9 55.3C30.9 53.9 30.7 51.8 31.4 50.3C31.6 49.8 32 49.4 32.4 49.1C32.6 51.9 33.1 54.4 33.7 56.7C32.9 56.4 32.3 55.9 31.9 55.3ZM38.3 58.4C37.3 54.8 36.3 51.1 36.3 46.4C36.3 46.1 36.3 45.8 36.3 45.5C38.4 40.7 40.7 37.8 43.4 36.8C47.6 35.2 53.2 38.1 59.7 41.5C66.9 45.2 75.4 49.7 85.3 49.7C87.3 49.7 89.4 49.5 91.6 49.1C91.3 52.1 90.7 55.9 89.8 58.4C80.8 83.5 68.8 86.2 64 86.2C59.3 86.2 47.3 83.5 38.3 58.4ZM64 90.2C66.1 90.2 69.3 89.8 73 87.9V90.1L66.4 96.4L66.3 96.5C65.1 97.8 62.9 97.8 61.7 96.5L55 90.1V87.9C58.7 89.8 61.9 90.2 64 90.2ZM42 122V119H38V122H29V108.3C29 105.2 30.8 102.4 33.5 101.1L51.5 92.4L58.7 99.3C59 99.7 59.4 100 59.8 100.2L57.2 122H42ZM61.3 122L63.8 101.5C63.9 101.5 64 101.5 64 101.5H64.2L66.7 122H61.3ZM99 122H90V119H86V122H70.8L68.1 100.2C68.5 99.9 68.9 99.6 69.2 99.3L76.4 92.4L94.4 101.1C97.2 102.4 98.9 105.3 98.9 108.3V122H99Z"
								fill="#000000" />
						</g>
						<defs>
							<filter id="filter0_d_220_122" x="-4" y="0" width="136" height="136"
								filterUnits="userSpaceOnUse" color-interpolation-filters="sRGB">
								<feFlood flood-opacity="0" result="BackgroundImageFix" />

								<feOffset dy="4" />
								<feGaussianBlur stdDeviation="2" />
								<feComposite in2="hardAlpha" operator="out" />
								<feColorMatrix type="matrix" values="0 0 0 0 0 0 0 0 0 0 0 0 0 0 0 0 0 0 0.25 0" />
								<feBlend mode="normal" in2="BackgroundImageFix" result="effect1_dropShadow_220_122" />
								<feBlend mode="normal" in="SourceGraphic" in2="effect1_dropShadow_220_122"
									result="shape" />
							</filter>
						</defs>
					</svg>